%TF.GenerationSoftware,KiCad,Pcbnew,8.0.1*%
%TF.CreationDate,2024-03-27T19:35:34-03:00*%
%TF.ProjectId,ampsight,616d7073-6967-4687-942e-6b696361645f,rev?*%
%TF.SameCoordinates,Original*%
%TF.FileFunction,Soldermask,Top*%
%TF.FilePolarity,Negative*%
%FSLAX46Y46*%
G04 Gerber Fmt 4.6, Leading zero omitted, Abs format (unit mm)*
G04 Created by KiCad (PCBNEW 8.0.1) date 2024-03-27 19:35:34*
%MOMM*%
%LPD*%
G01*
G04 APERTURE LIST*
%ADD10R,2.000000X2.000000*%
%ADD11O,2.000000X2.000000*%
%ADD12R,1.600000X1.600000*%
%ADD13O,1.600000X1.600000*%
%ADD14C,10.160000*%
%ADD15O,2.500000X3.500000*%
%ADD16O,2.400000X1.800000*%
%ADD17O,1.800000X2.400000*%
%ADD18C,3.000000*%
%ADD19C,2.200000*%
%ADD20C,2.500000*%
G04 APERTURE END LIST*
D10*
%TO.C,R7*%
X200000000Y-91055000D03*
D11*
X194920000Y-91055000D03*
%TD*%
%TO.C,R6*%
X189000000Y-112945000D03*
D10*
X183920000Y-112945000D03*
%TD*%
%TO.C,R5*%
X179000000Y-91055000D03*
D11*
X173920000Y-91055000D03*
%TD*%
%TO.C,R4*%
X168000000Y-113111666D03*
D10*
X162920000Y-113111666D03*
%TD*%
%TO.C,R3*%
X158000000Y-90971666D03*
D11*
X152920000Y-90971666D03*
%TD*%
%TO.C,R2*%
X147000000Y-112945000D03*
D10*
X141920000Y-112945000D03*
%TD*%
%TO.C,R1*%
X137040000Y-91055000D03*
D11*
X131960000Y-91055000D03*
%TD*%
D12*
%TO.C,SW1*%
X155375000Y-75767500D03*
D13*
X157915000Y-75767500D03*
X160455000Y-75767500D03*
X162995000Y-75767500D03*
X165535000Y-75767500D03*
X168075000Y-75767500D03*
X170615000Y-75767500D03*
X170615000Y-68147500D03*
X168075000Y-68147500D03*
X165535000Y-68147500D03*
X162995000Y-68147500D03*
X160455000Y-68147500D03*
X157915000Y-68147500D03*
X155375000Y-68147500D03*
%TD*%
D14*
%TO.C,J7*%
X123000000Y-72500000D03*
%TD*%
D15*
%TO.C,SW2*%
X89600000Y-96420000D03*
X94300000Y-96420000D03*
X99000000Y-96420000D03*
X89600000Y-101250000D03*
X94300000Y-101250000D03*
X99000000Y-101250000D03*
X89600000Y-106080000D03*
X94300000Y-106080000D03*
X99000000Y-106080000D03*
%TD*%
D14*
%TO.C,J8*%
X122980000Y-124020000D03*
%TD*%
D16*
%TO.C,J2*%
X95500000Y-118250000D03*
X91450000Y-119050000D03*
X91450000Y-125950000D03*
X88750000Y-119050000D03*
X88750000Y-125950000D03*
X86050000Y-119050000D03*
X86050000Y-125950000D03*
X83350000Y-119050000D03*
X83350000Y-125950000D03*
D17*
X99240000Y-120100000D03*
X99250000Y-124900000D03*
D16*
X95500000Y-126750000D03*
%TD*%
D18*
%TO.C,J1*%
X95085000Y-84615000D03*
X95085000Y-68385000D03*
X88735000Y-84615000D03*
X88735000Y-68385000D03*
X101435000Y-84615000D03*
X101435000Y-68385000D03*
%TD*%
D19*
%TO.C,J6*%
X114960000Y-99540000D03*
D20*
X112420000Y-97000000D03*
X112420000Y-102080000D03*
X117500000Y-97000000D03*
X117500000Y-102080000D03*
%TD*%
M02*
