%TF.GenerationSoftware,KiCad,Pcbnew,8.0.1*%
%TF.CreationDate,2024-03-27T19:35:34-03:00*%
%TF.ProjectId,ampsight,616d7073-6967-4687-942e-6b696361645f,rev?*%
%TF.SameCoordinates,Original*%
%TF.FileFunction,Copper,L1,Top*%
%TF.FilePolarity,Positive*%
%FSLAX46Y46*%
G04 Gerber Fmt 4.6, Leading zero omitted, Abs format (unit mm)*
G04 Created by KiCad (PCBNEW 8.0.1) date 2024-03-27 19:35:34*
%MOMM*%
%LPD*%
G01*
G04 APERTURE LIST*
%ADD10C,0.300000*%
%TA.AperFunction,NonConductor*%
%ADD11C,0.300000*%
%TD*%
%TA.AperFunction,ComponentPad*%
%ADD12R,2.000000X2.000000*%
%TD*%
%TA.AperFunction,ComponentPad*%
%ADD13O,2.000000X2.000000*%
%TD*%
%TA.AperFunction,ComponentPad*%
%ADD14R,1.600000X1.600000*%
%TD*%
%TA.AperFunction,ComponentPad*%
%ADD15O,1.600000X1.600000*%
%TD*%
%TA.AperFunction,ComponentPad*%
%ADD16C,10.160000*%
%TD*%
%TA.AperFunction,ComponentPad*%
%ADD17O,2.500000X3.500000*%
%TD*%
%TA.AperFunction,ComponentPad*%
%ADD18O,2.400000X1.800000*%
%TD*%
%TA.AperFunction,ComponentPad*%
%ADD19O,1.800000X2.400000*%
%TD*%
%TA.AperFunction,ComponentPad*%
%ADD20C,3.000000*%
%TD*%
%TA.AperFunction,ComponentPad*%
%ADD21C,2.200000*%
%TD*%
%TA.AperFunction,ComponentPad*%
%ADD22C,2.500000*%
%TD*%
%TA.AperFunction,Conductor*%
%ADD23C,2.000000*%
%TD*%
%TA.AperFunction,Conductor*%
%ADD24C,1.000000*%
%TD*%
G04 APERTURE END LIST*
D10*
D11*
X213590225Y-79300828D02*
X214447368Y-79300828D01*
X214018796Y-80800828D02*
X214018796Y-79300828D01*
X215161653Y-80800828D02*
X215018796Y-80729400D01*
X215018796Y-80729400D02*
X214947367Y-80657971D01*
X214947367Y-80657971D02*
X214875939Y-80515114D01*
X214875939Y-80515114D02*
X214875939Y-80086542D01*
X214875939Y-80086542D02*
X214947367Y-79943685D01*
X214947367Y-79943685D02*
X215018796Y-79872257D01*
X215018796Y-79872257D02*
X215161653Y-79800828D01*
X215161653Y-79800828D02*
X215375939Y-79800828D01*
X215375939Y-79800828D02*
X215518796Y-79872257D01*
X215518796Y-79872257D02*
X215590225Y-79943685D01*
X215590225Y-79943685D02*
X215661653Y-80086542D01*
X215661653Y-80086542D02*
X215661653Y-80515114D01*
X215661653Y-80515114D02*
X215590225Y-80657971D01*
X215590225Y-80657971D02*
X215518796Y-80729400D01*
X215518796Y-80729400D02*
X215375939Y-80800828D01*
X215375939Y-80800828D02*
X215161653Y-80800828D01*
X216304510Y-79800828D02*
X216304510Y-81300828D01*
X216304510Y-79872257D02*
X216447368Y-79800828D01*
X216447368Y-79800828D02*
X216733082Y-79800828D01*
X216733082Y-79800828D02*
X216875939Y-79872257D01*
X216875939Y-79872257D02*
X216947368Y-79943685D01*
X216947368Y-79943685D02*
X217018796Y-80086542D01*
X217018796Y-80086542D02*
X217018796Y-80515114D01*
X217018796Y-80515114D02*
X216947368Y-80657971D01*
X216947368Y-80657971D02*
X216875939Y-80729400D01*
X216875939Y-80729400D02*
X216733082Y-80800828D01*
X216733082Y-80800828D02*
X216447368Y-80800828D01*
X216447368Y-80800828D02*
X216304510Y-80729400D01*
X219518796Y-80800828D02*
X218804510Y-80800828D01*
X218804510Y-80800828D02*
X218804510Y-79300828D01*
X220661654Y-80800828D02*
X220661654Y-80015114D01*
X220661654Y-80015114D02*
X220590225Y-79872257D01*
X220590225Y-79872257D02*
X220447368Y-79800828D01*
X220447368Y-79800828D02*
X220161654Y-79800828D01*
X220161654Y-79800828D02*
X220018796Y-79872257D01*
X220661654Y-80729400D02*
X220518796Y-80800828D01*
X220518796Y-80800828D02*
X220161654Y-80800828D01*
X220161654Y-80800828D02*
X220018796Y-80729400D01*
X220018796Y-80729400D02*
X219947368Y-80586542D01*
X219947368Y-80586542D02*
X219947368Y-80443685D01*
X219947368Y-80443685D02*
X220018796Y-80300828D01*
X220018796Y-80300828D02*
X220161654Y-80229400D01*
X220161654Y-80229400D02*
X220518796Y-80229400D01*
X220518796Y-80229400D02*
X220661654Y-80157971D01*
X221233082Y-79800828D02*
X221590225Y-80800828D01*
X221947368Y-79800828D02*
X221590225Y-80800828D01*
X221590225Y-80800828D02*
X221447368Y-81157971D01*
X221447368Y-81157971D02*
X221375939Y-81229400D01*
X221375939Y-81229400D02*
X221233082Y-81300828D01*
X223090225Y-80729400D02*
X222947368Y-80800828D01*
X222947368Y-80800828D02*
X222661654Y-80800828D01*
X222661654Y-80800828D02*
X222518796Y-80729400D01*
X222518796Y-80729400D02*
X222447368Y-80586542D01*
X222447368Y-80586542D02*
X222447368Y-80015114D01*
X222447368Y-80015114D02*
X222518796Y-79872257D01*
X222518796Y-79872257D02*
X222661654Y-79800828D01*
X222661654Y-79800828D02*
X222947368Y-79800828D01*
X222947368Y-79800828D02*
X223090225Y-79872257D01*
X223090225Y-79872257D02*
X223161654Y-80015114D01*
X223161654Y-80015114D02*
X223161654Y-80157971D01*
X223161654Y-80157971D02*
X222447368Y-80300828D01*
X223804510Y-80800828D02*
X223804510Y-79800828D01*
X223804510Y-80086542D02*
X223875939Y-79943685D01*
X223875939Y-79943685D02*
X223947368Y-79872257D01*
X223947368Y-79872257D02*
X224090225Y-79800828D01*
X224090225Y-79800828D02*
X224233082Y-79800828D01*
D12*
%TO.P,R7,1*%
%TO.N,Net-(R7-Pad1)*%
X200000000Y-91055000D03*
D13*
%TO.P,R7,2*%
%TO.N,/DUT_N*%
X194920000Y-91055000D03*
%TD*%
%TO.P,R6,2*%
%TO.N,/DUT_N*%
X189000000Y-112945000D03*
D12*
%TO.P,R6,1*%
%TO.N,Net-(R6-Pad1)*%
X183920000Y-112945000D03*
%TD*%
%TO.P,R5,1*%
%TO.N,Net-(R5-Pad1)*%
X179000000Y-91055000D03*
D13*
%TO.P,R5,2*%
%TO.N,/DUT_N*%
X173920000Y-91055000D03*
%TD*%
%TO.P,R4,2*%
%TO.N,/DUT_N*%
X168000000Y-113111666D03*
D12*
%TO.P,R4,1*%
%TO.N,Net-(R4-Pad1)*%
X162920000Y-113111666D03*
%TD*%
%TO.P,R3,1*%
%TO.N,Net-(R3-Pad1)*%
X158000000Y-90971666D03*
D13*
%TO.P,R3,2*%
%TO.N,/DUT_N*%
X152920000Y-90971666D03*
%TD*%
%TO.P,R2,2*%
%TO.N,/DUT_N*%
X147000000Y-112945000D03*
D12*
%TO.P,R2,1*%
%TO.N,Net-(R2-Pad1)*%
X141920000Y-112945000D03*
%TD*%
%TO.P,R1,1*%
%TO.N,Net-(R1-Pad1)*%
X137040000Y-91055000D03*
D13*
%TO.P,R1,2*%
%TO.N,/DUT_N*%
X131960000Y-91055000D03*
%TD*%
D14*
%TO.P,SW1,1*%
%TO.N,Net-(R1-Pad1)*%
X155375000Y-75767500D03*
D15*
%TO.P,SW1,2*%
%TO.N,Net-(R2-Pad1)*%
X157915000Y-75767500D03*
%TO.P,SW1,3*%
%TO.N,Net-(R3-Pad1)*%
X160455000Y-75767500D03*
%TO.P,SW1,4*%
%TO.N,Net-(R4-Pad1)*%
X162995000Y-75767500D03*
%TO.P,SW1,5*%
%TO.N,Net-(R5-Pad1)*%
X165535000Y-75767500D03*
%TO.P,SW1,6*%
%TO.N,Net-(R6-Pad1)*%
X168075000Y-75767500D03*
%TO.P,SW1,7*%
%TO.N,Net-(R7-Pad1)*%
X170615000Y-75767500D03*
%TO.P,SW1,8*%
%TO.N,/DUT_P*%
X170615000Y-68147500D03*
%TO.P,SW1,9*%
X168075000Y-68147500D03*
%TO.P,SW1,10*%
X165535000Y-68147500D03*
%TO.P,SW1,11*%
X162995000Y-68147500D03*
%TO.P,SW1,12*%
X160455000Y-68147500D03*
%TO.P,SW1,13*%
X157915000Y-68147500D03*
%TO.P,SW1,14*%
X155375000Y-68147500D03*
%TD*%
D16*
%TO.P,J7,1,Pin_1*%
%TO.N,/DUT_P*%
X123000000Y-72500000D03*
%TD*%
D17*
%TO.P,SW2,1,C*%
%TO.N,/SE_R*%
X89600000Y-96420000D03*
%TO.P,SW2,2,B*%
%TO.N,/DUT_P*%
X94300000Y-96420000D03*
%TO.P,SW2,3,A*%
%TO.N,/SE_L*%
X99000000Y-96420000D03*
%TO.P,SW2,4,C*%
%TO.N,/BAL_R_P*%
X89600000Y-101250000D03*
%TO.P,SW2,5,B*%
%TO.N,/DUT_P*%
X94300000Y-101250000D03*
%TO.P,SW2,6,A*%
%TO.N,/BAL_L_P*%
X99000000Y-101250000D03*
%TO.P,SW2,7,C*%
%TO.N,/BAL_R_N*%
X89600000Y-106080000D03*
%TO.P,SW2,8,B*%
%TO.N,/DUT_N*%
X94300000Y-106080000D03*
%TO.P,SW2,9,A*%
%TO.N,/BAL_L_N*%
X99000000Y-106080000D03*
%TD*%
D16*
%TO.P,J8,1,Pin_1*%
%TO.N,/DUT_N*%
X122980000Y-124020000D03*
%TD*%
D18*
%TO.P,J2,B*%
%TO.N,unconnected-(J2-PadB)*%
X95500000Y-118250000D03*
%TO.P,J2,R1,L-*%
%TO.N,/BAL_L_N*%
X91450000Y-119050000D03*
X91450000Y-125950000D03*
%TO.P,J2,R2,R+*%
%TO.N,/BAL_R_P*%
X88750000Y-119050000D03*
X88750000Y-125950000D03*
%TO.P,J2,R3,R-*%
%TO.N,/BAL_R_N*%
X86050000Y-119050000D03*
X86050000Y-125950000D03*
%TO.P,J2,S,GND*%
%TO.N,unconnected-(J2-GND-PadS)*%
X83350000Y-119050000D03*
%TO.N,unconnected-(J2-GND-PadS)_0*%
X83350000Y-125950000D03*
D19*
%TO.P,J2,T,L+*%
%TO.N,/BAL_L_P*%
X99240000Y-120100000D03*
X99250000Y-124900000D03*
D18*
%TO.P,J2,TC*%
%TO.N,unconnected-(J2-PadTC)*%
X95500000Y-126750000D03*
%TD*%
D20*
%TO.P,J1,R*%
%TO.N,/SE_R*%
X95085000Y-84615000D03*
%TO.P,J1,RN*%
%TO.N,N/C*%
X95085000Y-68385000D03*
%TO.P,J1,S*%
%TO.N,/DUT_N*%
X88735000Y-84615000D03*
%TO.P,J1,SN*%
%TO.N,N/C*%
X88735000Y-68385000D03*
%TO.P,J1,T*%
%TO.N,/SE_L*%
X101435000Y-84615000D03*
%TO.P,J1,TN*%
%TO.N,N/C*%
X101435000Y-68385000D03*
%TD*%
D21*
%TO.P,J6,1,In*%
%TO.N,/DUT_P*%
X114960000Y-99540000D03*
D22*
%TO.P,J6,2,Ext*%
%TO.N,/DUT_N*%
X112420000Y-97000000D03*
X112420000Y-102080000D03*
X117500000Y-97000000D03*
X117500000Y-102080000D03*
%TD*%
D23*
%TO.N,Net-(R7-Pad1)*%
X188695000Y-79750000D02*
X200000000Y-91055000D01*
X170615000Y-76365000D02*
X174000000Y-79750000D01*
X174000000Y-79750000D02*
X188695000Y-79750000D01*
X170615000Y-75767500D02*
X170615000Y-76365000D01*
%TO.N,Net-(R1-Pad1)*%
X155375000Y-77875000D02*
X155375000Y-75767500D01*
X142195000Y-91055000D02*
X155375000Y-77875000D01*
X137040000Y-91055000D02*
X142195000Y-91055000D01*
%TO.N,Net-(R2-Pad1)*%
X157915000Y-79585000D02*
X157915000Y-75767500D01*
X141920000Y-95580000D02*
X157915000Y-79585000D01*
X141920000Y-112945000D02*
X141920000Y-95580000D01*
%TO.N,Net-(R6-Pad1)*%
X183920000Y-89170000D02*
X183920000Y-112945000D01*
X177500000Y-82750000D02*
X183920000Y-89170000D01*
X173250000Y-82750000D02*
X177500000Y-82750000D01*
X168075000Y-75767500D02*
X168075000Y-77575000D01*
X168075000Y-77575000D02*
X173250000Y-82750000D01*
%TO.N,Net-(R5-Pad1)*%
X177555000Y-91055000D02*
X179000000Y-91055000D01*
X165535000Y-79035000D02*
X177555000Y-91055000D01*
X165535000Y-75767500D02*
X165535000Y-79035000D01*
%TO.N,Net-(R3-Pad1)*%
X160455000Y-81750000D02*
X158000000Y-84205000D01*
X160455000Y-75767500D02*
X160455000Y-81750000D01*
X158000000Y-84205000D02*
X158000000Y-90971666D01*
D24*
%TO.N,/DUT_N*%
X112420000Y-113460000D02*
X122980000Y-124020000D01*
X112420000Y-102080000D02*
X112420000Y-113460000D01*
%TO.N,/DUT_P*%
X114960000Y-80540000D02*
X123000000Y-72500000D01*
X114960000Y-99540000D02*
X114960000Y-80540000D01*
D23*
%TO.N,/DUT_N*%
X131960000Y-123730000D02*
X132250000Y-124020000D01*
X131960000Y-91055000D02*
X131960000Y-123730000D01*
X132250000Y-124020000D02*
X122980000Y-124020000D01*
X147500000Y-124020000D02*
X132250000Y-124020000D01*
X152920000Y-90971666D02*
X152920000Y-123940000D01*
X153000000Y-124020000D02*
X147500000Y-124020000D01*
X168250000Y-124020000D02*
X153000000Y-124020000D01*
X152920000Y-123940000D02*
X153000000Y-124020000D01*
X147000000Y-123520000D02*
X147500000Y-124020000D01*
X147000000Y-112945000D02*
X147000000Y-123520000D01*
X168000000Y-123770000D02*
X168250000Y-124020000D01*
X168000000Y-113111666D02*
X168000000Y-123770000D01*
X174000000Y-124020000D02*
X168250000Y-124020000D01*
X173920000Y-91055000D02*
X173920000Y-123940000D01*
X173920000Y-123940000D02*
X174000000Y-124020000D01*
X189500000Y-124020000D02*
X174000000Y-124020000D01*
X189000000Y-123520000D02*
X189500000Y-124020000D01*
X189000000Y-112945000D02*
X189000000Y-123520000D01*
X194920000Y-124020000D02*
X189500000Y-124020000D01*
X194920000Y-91055000D02*
X194920000Y-124020000D01*
%TO.N,Net-(R4-Pad1)*%
X162995000Y-113036666D02*
X162920000Y-113111666D01*
X162995000Y-75767500D02*
X162995000Y-113036666D01*
D24*
%TO.N,/DUT_P*%
X96500000Y-91500000D02*
X94300000Y-93700000D01*
X103000000Y-91500000D02*
X96500000Y-91500000D01*
X111040000Y-99540000D02*
X103000000Y-91500000D01*
X114960000Y-99540000D02*
X111040000Y-99540000D01*
X94300000Y-93700000D02*
X94300000Y-96420000D01*
D23*
X127352500Y-68147500D02*
X170615000Y-68147500D01*
X123000000Y-72500000D02*
X127352500Y-68147500D01*
%TO.N,Net-(R4-Pad1)*%
X162920000Y-113111666D02*
X162916666Y-113111666D01*
D24*
%TO.N,/SE_R*%
X89600000Y-90100000D02*
X95085000Y-84615000D01*
X89600000Y-96420000D02*
X89600000Y-90100000D01*
%TO.N,/BAL_L_P*%
X99240000Y-112760000D02*
X101500000Y-110500000D01*
X99250000Y-120110000D02*
X99240000Y-120100000D01*
X101500000Y-110500000D02*
X101500000Y-103750000D01*
X99250000Y-124900000D02*
X99250000Y-120110000D01*
X99240000Y-120100000D02*
X99240000Y-112760000D01*
X101500000Y-103750000D02*
X99000000Y-101250000D01*
%TO.N,/BAL_L_N*%
X91450000Y-114550000D02*
X99000000Y-107000000D01*
X91450000Y-119050000D02*
X91450000Y-114550000D01*
X99000000Y-107000000D02*
X99000000Y-106080000D01*
X91450000Y-125950000D02*
X91450000Y-119050000D01*
%TO.N,/BAL_R_P*%
X92000000Y-103650000D02*
X89600000Y-101250000D01*
X88750000Y-113250000D02*
X92000000Y-110000000D01*
X92000000Y-110000000D02*
X92000000Y-103650000D01*
X88750000Y-119050000D02*
X88750000Y-113250000D01*
X88750000Y-125950000D02*
X88750000Y-119050000D01*
%TO.N,/BAL_R_N*%
X86050000Y-109630000D02*
X89600000Y-106080000D01*
X86050000Y-119050000D02*
X86050000Y-109630000D01*
X86050000Y-125950000D02*
X86050000Y-119050000D01*
%TO.N,/DUT_N*%
X117500000Y-102080000D02*
X117500000Y-103000000D01*
X117500000Y-102080000D02*
X112420000Y-102080000D01*
X117500000Y-103000000D02*
X117730000Y-103230000D01*
X117500000Y-97000000D02*
X117500000Y-102080000D01*
X123000000Y-124000000D02*
X122980000Y-124020000D01*
%TO.N,/DUT_P*%
X115000000Y-99500000D02*
X114960000Y-99540000D01*
X94300000Y-101250000D02*
X94300000Y-96420000D01*
%TD*%
M02*
