M48
; DRILL file {KiCad 8.0.1} date 2024-03-27T19:35:56-0300
; FORMAT={-:-/ absolute / inch / decimal}
; #@! TF.CreationDate,2024-03-27T19:35:56-03:00
; #@! TF.GenerationSoftware,Kicad,Pcbnew,8.0.1
; #@! TF.FileFunction,Plated,1,2,PTH
FMAT,2
INCH
; #@! TA.AperFunction,Plated,PTH,ComponentDrill
T1C0.0315
; #@! TA.AperFunction,Plated,PTH,ComponentDrill
T2C0.0394
; #@! TA.AperFunction,Plated,PTH,ComponentDrill
T3C0.0433
; #@! TA.AperFunction,Plated,PTH,ComponentDrill
T4C0.0551
; #@! TA.AperFunction,Plated,PTH,ComponentDrill
T5C0.0591
; #@! TA.AperFunction,Plated,PTH,ComponentDrill
T6C0.0669
; #@! TA.AperFunction,Plated,PTH,ComponentDrill
T7C0.2402
%
G90
G05
T1
X6.1171Y-2.683
X6.1171Y-2.983
X6.2171Y-2.683
X6.2171Y-2.983
X6.3171Y-2.683
X6.3171Y-2.983
X6.4171Y-2.683
X6.4171Y-2.983
X6.5171Y-2.683
X6.5171Y-2.983
X6.6171Y-2.683
X6.6171Y-2.983
X6.7171Y-2.683
X6.7171Y-2.983
T3
X5.1953Y-3.5848
X5.3953Y-3.5848
X5.5874Y-4.4467
X5.7874Y-4.4467
X6.0205Y-3.5816
X6.2205Y-3.5816
X6.4142Y-4.4532
X6.6142Y-4.4532
X6.8472Y-3.5848
X7.0472Y-3.5848
X7.2409Y-4.4467
X7.4409Y-4.4467
X7.674Y-3.5848
X7.874Y-3.5848
T4
X3.4935Y-2.6923
X3.4935Y-3.3313
X3.7435Y-2.6923
X3.7435Y-3.3313
X3.9935Y-2.6923
X3.9935Y-3.3313
T5
X4.526Y-3.9189
T6
X4.426Y-3.8189
X4.426Y-4.0189
X4.626Y-3.8189
X4.626Y-4.0189
T7
X4.8417Y-4.8827
X4.8425Y-2.8543
T2
G00X3.2697Y-4.687
M15
G01X3.2933Y-4.687
M16
G05
G00X3.2697Y-4.9587
M15
G01X3.2933Y-4.9587
M16
G05
G00X3.376Y-4.687
M15
G01X3.3996Y-4.687
M16
G05
G00X3.376Y-4.9587
M15
G01X3.3996Y-4.9587
M16
G05
G00X3.4823Y-4.687
M15
G01X3.5059Y-4.687
M16
G05
G00X3.4823Y-4.9587
M15
G01X3.5059Y-4.9587
M16
G05
G00X3.5886Y-4.687
M15
G01X3.6122Y-4.687
M16
G05
G00X3.5886Y-4.9587
M15
G01X3.6122Y-4.9587
M16
G05
G00X3.748Y-4.6555
M15
G01X3.7717Y-4.6555
M16
G05
G00X3.748Y-4.9902
M15
G01X3.7717Y-4.9902
M16
G05
G00X3.9071Y-4.7402
M15
G01X3.9071Y-4.7165
M16
G05
G00X3.9075Y-4.9291
M15
G01X3.9075Y-4.9055
M16
G05
T5
G00X3.5276Y-3.7764
M15
G01X3.5276Y-3.8157
M16
G05
G00X3.5276Y-3.9665
M15
G01X3.5276Y-4.0059
M16
G05
G00X3.5276Y-4.1567
M15
G01X3.5276Y-4.1961
M16
G05
G00X3.7126Y-3.7764
M15
G01X3.7126Y-3.8157
M16
G05
G00X3.7126Y-3.9665
M15
G01X3.7126Y-4.0059
M16
G05
G00X3.7126Y-4.1567
M15
G01X3.7126Y-4.1961
M16
G05
G00X3.8976Y-3.7764
M15
G01X3.8976Y-3.8157
M16
G05
G00X3.8976Y-3.9665
M15
G01X3.8976Y-4.0059
M16
G05
G00X3.8976Y-4.1567
M15
G01X3.8976Y-4.1961
M16
G05
M30
