%TF.GenerationSoftware,KiCad,Pcbnew,8.0.1*%
%TF.CreationDate,2024-03-27T19:35:34-03:00*%
%TF.ProjectId,ampsight,616d7073-6967-4687-942e-6b696361645f,rev?*%
%TF.SameCoordinates,Original*%
%TF.FileFunction,OtherDrawing,Comment*%
%FSLAX46Y46*%
G04 Gerber Fmt 4.6, Leading zero omitted, Abs format (unit mm)*
G04 Created by KiCad (PCBNEW 8.0.1) date 2024-03-27 19:35:34*
%MOMM*%
%LPD*%
G01*
G04 APERTURE LIST*
%ADD10C,0.100000*%
%ADD11C,0.150000*%
G04 APERTURE END LIST*
D10*
X206250000Y-62500000D02*
G75*
G02*
X211250000Y-67500000I0J-5000000D01*
G01*
X81250000Y-67500000D02*
G75*
G02*
X86250000Y-62500000I5000000J0D01*
G01*
X86250000Y-132500000D02*
G75*
G02*
X81250000Y-127500000I0J5000000D01*
G01*
X86250000Y-62500000D02*
X206250000Y-62500000D01*
X206250000Y-132500000D02*
X86250000Y-132500000D01*
X211250000Y-127500000D02*
G75*
G02*
X206250000Y-132500000I-5000000J0D01*
G01*
X81250000Y-127500000D02*
X81250000Y-67500000D01*
X211250000Y-67500000D02*
X211250000Y-127500000D01*
D11*
X73554819Y-102166665D02*
X73554819Y-101499999D01*
X73554819Y-101499999D02*
X74554819Y-101928570D01*
X73554819Y-100928570D02*
X73554819Y-100833332D01*
X73554819Y-100833332D02*
X73602438Y-100738094D01*
X73602438Y-100738094D02*
X73650057Y-100690475D01*
X73650057Y-100690475D02*
X73745295Y-100642856D01*
X73745295Y-100642856D02*
X73935771Y-100595237D01*
X73935771Y-100595237D02*
X74173866Y-100595237D01*
X74173866Y-100595237D02*
X74364342Y-100642856D01*
X74364342Y-100642856D02*
X74459580Y-100690475D01*
X74459580Y-100690475D02*
X74507200Y-100738094D01*
X74507200Y-100738094D02*
X74554819Y-100833332D01*
X74554819Y-100833332D02*
X74554819Y-100928570D01*
X74554819Y-100928570D02*
X74507200Y-101023808D01*
X74507200Y-101023808D02*
X74459580Y-101071427D01*
X74459580Y-101071427D02*
X74364342Y-101119046D01*
X74364342Y-101119046D02*
X74173866Y-101166665D01*
X74173866Y-101166665D02*
X73935771Y-101166665D01*
X73935771Y-101166665D02*
X73745295Y-101119046D01*
X73745295Y-101119046D02*
X73650057Y-101071427D01*
X73650057Y-101071427D02*
X73602438Y-101023808D01*
X73602438Y-101023808D02*
X73554819Y-100928570D01*
X74459580Y-100166665D02*
X74507200Y-100119046D01*
X74507200Y-100119046D02*
X74554819Y-100166665D01*
X74554819Y-100166665D02*
X74507200Y-100214284D01*
X74507200Y-100214284D02*
X74459580Y-100166665D01*
X74459580Y-100166665D02*
X74554819Y-100166665D01*
X73554819Y-99499999D02*
X73554819Y-99404761D01*
X73554819Y-99404761D02*
X73602438Y-99309523D01*
X73602438Y-99309523D02*
X73650057Y-99261904D01*
X73650057Y-99261904D02*
X73745295Y-99214285D01*
X73745295Y-99214285D02*
X73935771Y-99166666D01*
X73935771Y-99166666D02*
X74173866Y-99166666D01*
X74173866Y-99166666D02*
X74364342Y-99214285D01*
X74364342Y-99214285D02*
X74459580Y-99261904D01*
X74459580Y-99261904D02*
X74507200Y-99309523D01*
X74507200Y-99309523D02*
X74554819Y-99404761D01*
X74554819Y-99404761D02*
X74554819Y-99499999D01*
X74554819Y-99499999D02*
X74507200Y-99595237D01*
X74507200Y-99595237D02*
X74459580Y-99642856D01*
X74459580Y-99642856D02*
X74364342Y-99690475D01*
X74364342Y-99690475D02*
X74173866Y-99738094D01*
X74173866Y-99738094D02*
X73935771Y-99738094D01*
X73935771Y-99738094D02*
X73745295Y-99690475D01*
X73745295Y-99690475D02*
X73650057Y-99642856D01*
X73650057Y-99642856D02*
X73602438Y-99595237D01*
X73602438Y-99595237D02*
X73554819Y-99499999D01*
X73554819Y-98547618D02*
X73554819Y-98452380D01*
X73554819Y-98452380D02*
X73602438Y-98357142D01*
X73602438Y-98357142D02*
X73650057Y-98309523D01*
X73650057Y-98309523D02*
X73745295Y-98261904D01*
X73745295Y-98261904D02*
X73935771Y-98214285D01*
X73935771Y-98214285D02*
X74173866Y-98214285D01*
X74173866Y-98214285D02*
X74364342Y-98261904D01*
X74364342Y-98261904D02*
X74459580Y-98309523D01*
X74459580Y-98309523D02*
X74507200Y-98357142D01*
X74507200Y-98357142D02*
X74554819Y-98452380D01*
X74554819Y-98452380D02*
X74554819Y-98547618D01*
X74554819Y-98547618D02*
X74507200Y-98642856D01*
X74507200Y-98642856D02*
X74459580Y-98690475D01*
X74459580Y-98690475D02*
X74364342Y-98738094D01*
X74364342Y-98738094D02*
X74173866Y-98785713D01*
X74173866Y-98785713D02*
X73935771Y-98785713D01*
X73935771Y-98785713D02*
X73745295Y-98738094D01*
X73745295Y-98738094D02*
X73650057Y-98690475D01*
X73650057Y-98690475D02*
X73602438Y-98642856D01*
X73602438Y-98642856D02*
X73554819Y-98547618D01*
X73554819Y-97595237D02*
X73554819Y-97499999D01*
X73554819Y-97499999D02*
X73602438Y-97404761D01*
X73602438Y-97404761D02*
X73650057Y-97357142D01*
X73650057Y-97357142D02*
X73745295Y-97309523D01*
X73745295Y-97309523D02*
X73935771Y-97261904D01*
X73935771Y-97261904D02*
X74173866Y-97261904D01*
X74173866Y-97261904D02*
X74364342Y-97309523D01*
X74364342Y-97309523D02*
X74459580Y-97357142D01*
X74459580Y-97357142D02*
X74507200Y-97404761D01*
X74507200Y-97404761D02*
X74554819Y-97499999D01*
X74554819Y-97499999D02*
X74554819Y-97595237D01*
X74554819Y-97595237D02*
X74507200Y-97690475D01*
X74507200Y-97690475D02*
X74459580Y-97738094D01*
X74459580Y-97738094D02*
X74364342Y-97785713D01*
X74364342Y-97785713D02*
X74173866Y-97833332D01*
X74173866Y-97833332D02*
X73935771Y-97833332D01*
X73935771Y-97833332D02*
X73745295Y-97785713D01*
X73745295Y-97785713D02*
X73650057Y-97738094D01*
X73650057Y-97738094D02*
X73602438Y-97690475D01*
X73602438Y-97690475D02*
X73554819Y-97595237D01*
X73554819Y-96642856D02*
X73554819Y-96547618D01*
X73554819Y-96547618D02*
X73602438Y-96452380D01*
X73602438Y-96452380D02*
X73650057Y-96404761D01*
X73650057Y-96404761D02*
X73745295Y-96357142D01*
X73745295Y-96357142D02*
X73935771Y-96309523D01*
X73935771Y-96309523D02*
X74173866Y-96309523D01*
X74173866Y-96309523D02*
X74364342Y-96357142D01*
X74364342Y-96357142D02*
X74459580Y-96404761D01*
X74459580Y-96404761D02*
X74507200Y-96452380D01*
X74507200Y-96452380D02*
X74554819Y-96547618D01*
X74554819Y-96547618D02*
X74554819Y-96642856D01*
X74554819Y-96642856D02*
X74507200Y-96738094D01*
X74507200Y-96738094D02*
X74459580Y-96785713D01*
X74459580Y-96785713D02*
X74364342Y-96833332D01*
X74364342Y-96833332D02*
X74173866Y-96880951D01*
X74173866Y-96880951D02*
X73935771Y-96880951D01*
X73935771Y-96880951D02*
X73745295Y-96833332D01*
X73745295Y-96833332D02*
X73650057Y-96785713D01*
X73650057Y-96785713D02*
X73602438Y-96738094D01*
X73602438Y-96738094D02*
X73554819Y-96642856D01*
X74554819Y-95119046D02*
X73888152Y-95119046D01*
X73983390Y-95119046D02*
X73935771Y-95071427D01*
X73935771Y-95071427D02*
X73888152Y-94976189D01*
X73888152Y-94976189D02*
X73888152Y-94833332D01*
X73888152Y-94833332D02*
X73935771Y-94738094D01*
X73935771Y-94738094D02*
X74031009Y-94690475D01*
X74031009Y-94690475D02*
X74554819Y-94690475D01*
X74031009Y-94690475D02*
X73935771Y-94642856D01*
X73935771Y-94642856D02*
X73888152Y-94547618D01*
X73888152Y-94547618D02*
X73888152Y-94404761D01*
X73888152Y-94404761D02*
X73935771Y-94309522D01*
X73935771Y-94309522D02*
X74031009Y-94261903D01*
X74031009Y-94261903D02*
X74554819Y-94261903D01*
X74554819Y-93785713D02*
X73888152Y-93785713D01*
X73983390Y-93785713D02*
X73935771Y-93738094D01*
X73935771Y-93738094D02*
X73888152Y-93642856D01*
X73888152Y-93642856D02*
X73888152Y-93499999D01*
X73888152Y-93499999D02*
X73935771Y-93404761D01*
X73935771Y-93404761D02*
X74031009Y-93357142D01*
X74031009Y-93357142D02*
X74554819Y-93357142D01*
X74031009Y-93357142D02*
X73935771Y-93309523D01*
X73935771Y-93309523D02*
X73888152Y-93214285D01*
X73888152Y-93214285D02*
X73888152Y-93071428D01*
X73888152Y-93071428D02*
X73935771Y-92976189D01*
X73935771Y-92976189D02*
X74031009Y-92928570D01*
X74031009Y-92928570D02*
X74554819Y-92928570D01*
D10*
X85750000Y-132500000D02*
X74663580Y-132500000D01*
X85750000Y-62500000D02*
X74663580Y-62500000D01*
X75250000Y-132500000D02*
X75250000Y-62500000D01*
X75250000Y-132500000D02*
X75250000Y-62500000D01*
X75250000Y-132500000D02*
X74663579Y-131373496D01*
X75250000Y-132500000D02*
X75836421Y-131373496D01*
X75250000Y-62500000D02*
X75836421Y-63626504D01*
X75250000Y-62500000D02*
X74663579Y-63626504D01*
D11*
X140976190Y-137704819D02*
X140404762Y-137704819D01*
X140690476Y-137704819D02*
X140690476Y-136704819D01*
X140690476Y-136704819D02*
X140595238Y-136847676D01*
X140595238Y-136847676D02*
X140500000Y-136942914D01*
X140500000Y-136942914D02*
X140404762Y-136990533D01*
X141309524Y-136704819D02*
X141928571Y-136704819D01*
X141928571Y-136704819D02*
X141595238Y-137085771D01*
X141595238Y-137085771D02*
X141738095Y-137085771D01*
X141738095Y-137085771D02*
X141833333Y-137133390D01*
X141833333Y-137133390D02*
X141880952Y-137181009D01*
X141880952Y-137181009D02*
X141928571Y-137276247D01*
X141928571Y-137276247D02*
X141928571Y-137514342D01*
X141928571Y-137514342D02*
X141880952Y-137609580D01*
X141880952Y-137609580D02*
X141833333Y-137657200D01*
X141833333Y-137657200D02*
X141738095Y-137704819D01*
X141738095Y-137704819D02*
X141452381Y-137704819D01*
X141452381Y-137704819D02*
X141357143Y-137657200D01*
X141357143Y-137657200D02*
X141309524Y-137609580D01*
X142547619Y-136704819D02*
X142642857Y-136704819D01*
X142642857Y-136704819D02*
X142738095Y-136752438D01*
X142738095Y-136752438D02*
X142785714Y-136800057D01*
X142785714Y-136800057D02*
X142833333Y-136895295D01*
X142833333Y-136895295D02*
X142880952Y-137085771D01*
X142880952Y-137085771D02*
X142880952Y-137323866D01*
X142880952Y-137323866D02*
X142833333Y-137514342D01*
X142833333Y-137514342D02*
X142785714Y-137609580D01*
X142785714Y-137609580D02*
X142738095Y-137657200D01*
X142738095Y-137657200D02*
X142642857Y-137704819D01*
X142642857Y-137704819D02*
X142547619Y-137704819D01*
X142547619Y-137704819D02*
X142452381Y-137657200D01*
X142452381Y-137657200D02*
X142404762Y-137609580D01*
X142404762Y-137609580D02*
X142357143Y-137514342D01*
X142357143Y-137514342D02*
X142309524Y-137323866D01*
X142309524Y-137323866D02*
X142309524Y-137085771D01*
X142309524Y-137085771D02*
X142357143Y-136895295D01*
X142357143Y-136895295D02*
X142404762Y-136800057D01*
X142404762Y-136800057D02*
X142452381Y-136752438D01*
X142452381Y-136752438D02*
X142547619Y-136704819D01*
X143309524Y-137609580D02*
X143357143Y-137657200D01*
X143357143Y-137657200D02*
X143309524Y-137704819D01*
X143309524Y-137704819D02*
X143261905Y-137657200D01*
X143261905Y-137657200D02*
X143309524Y-137609580D01*
X143309524Y-137609580D02*
X143309524Y-137704819D01*
X143976190Y-136704819D02*
X144071428Y-136704819D01*
X144071428Y-136704819D02*
X144166666Y-136752438D01*
X144166666Y-136752438D02*
X144214285Y-136800057D01*
X144214285Y-136800057D02*
X144261904Y-136895295D01*
X144261904Y-136895295D02*
X144309523Y-137085771D01*
X144309523Y-137085771D02*
X144309523Y-137323866D01*
X144309523Y-137323866D02*
X144261904Y-137514342D01*
X144261904Y-137514342D02*
X144214285Y-137609580D01*
X144214285Y-137609580D02*
X144166666Y-137657200D01*
X144166666Y-137657200D02*
X144071428Y-137704819D01*
X144071428Y-137704819D02*
X143976190Y-137704819D01*
X143976190Y-137704819D02*
X143880952Y-137657200D01*
X143880952Y-137657200D02*
X143833333Y-137609580D01*
X143833333Y-137609580D02*
X143785714Y-137514342D01*
X143785714Y-137514342D02*
X143738095Y-137323866D01*
X143738095Y-137323866D02*
X143738095Y-137085771D01*
X143738095Y-137085771D02*
X143785714Y-136895295D01*
X143785714Y-136895295D02*
X143833333Y-136800057D01*
X143833333Y-136800057D02*
X143880952Y-136752438D01*
X143880952Y-136752438D02*
X143976190Y-136704819D01*
X144928571Y-136704819D02*
X145023809Y-136704819D01*
X145023809Y-136704819D02*
X145119047Y-136752438D01*
X145119047Y-136752438D02*
X145166666Y-136800057D01*
X145166666Y-136800057D02*
X145214285Y-136895295D01*
X145214285Y-136895295D02*
X145261904Y-137085771D01*
X145261904Y-137085771D02*
X145261904Y-137323866D01*
X145261904Y-137323866D02*
X145214285Y-137514342D01*
X145214285Y-137514342D02*
X145166666Y-137609580D01*
X145166666Y-137609580D02*
X145119047Y-137657200D01*
X145119047Y-137657200D02*
X145023809Y-137704819D01*
X145023809Y-137704819D02*
X144928571Y-137704819D01*
X144928571Y-137704819D02*
X144833333Y-137657200D01*
X144833333Y-137657200D02*
X144785714Y-137609580D01*
X144785714Y-137609580D02*
X144738095Y-137514342D01*
X144738095Y-137514342D02*
X144690476Y-137323866D01*
X144690476Y-137323866D02*
X144690476Y-137085771D01*
X144690476Y-137085771D02*
X144738095Y-136895295D01*
X144738095Y-136895295D02*
X144785714Y-136800057D01*
X144785714Y-136800057D02*
X144833333Y-136752438D01*
X144833333Y-136752438D02*
X144928571Y-136704819D01*
X145880952Y-136704819D02*
X145976190Y-136704819D01*
X145976190Y-136704819D02*
X146071428Y-136752438D01*
X146071428Y-136752438D02*
X146119047Y-136800057D01*
X146119047Y-136800057D02*
X146166666Y-136895295D01*
X146166666Y-136895295D02*
X146214285Y-137085771D01*
X146214285Y-137085771D02*
X146214285Y-137323866D01*
X146214285Y-137323866D02*
X146166666Y-137514342D01*
X146166666Y-137514342D02*
X146119047Y-137609580D01*
X146119047Y-137609580D02*
X146071428Y-137657200D01*
X146071428Y-137657200D02*
X145976190Y-137704819D01*
X145976190Y-137704819D02*
X145880952Y-137704819D01*
X145880952Y-137704819D02*
X145785714Y-137657200D01*
X145785714Y-137657200D02*
X145738095Y-137609580D01*
X145738095Y-137609580D02*
X145690476Y-137514342D01*
X145690476Y-137514342D02*
X145642857Y-137323866D01*
X145642857Y-137323866D02*
X145642857Y-137085771D01*
X145642857Y-137085771D02*
X145690476Y-136895295D01*
X145690476Y-136895295D02*
X145738095Y-136800057D01*
X145738095Y-136800057D02*
X145785714Y-136752438D01*
X145785714Y-136752438D02*
X145880952Y-136704819D01*
X146833333Y-136704819D02*
X146928571Y-136704819D01*
X146928571Y-136704819D02*
X147023809Y-136752438D01*
X147023809Y-136752438D02*
X147071428Y-136800057D01*
X147071428Y-136800057D02*
X147119047Y-136895295D01*
X147119047Y-136895295D02*
X147166666Y-137085771D01*
X147166666Y-137085771D02*
X147166666Y-137323866D01*
X147166666Y-137323866D02*
X147119047Y-137514342D01*
X147119047Y-137514342D02*
X147071428Y-137609580D01*
X147071428Y-137609580D02*
X147023809Y-137657200D01*
X147023809Y-137657200D02*
X146928571Y-137704819D01*
X146928571Y-137704819D02*
X146833333Y-137704819D01*
X146833333Y-137704819D02*
X146738095Y-137657200D01*
X146738095Y-137657200D02*
X146690476Y-137609580D01*
X146690476Y-137609580D02*
X146642857Y-137514342D01*
X146642857Y-137514342D02*
X146595238Y-137323866D01*
X146595238Y-137323866D02*
X146595238Y-137085771D01*
X146595238Y-137085771D02*
X146642857Y-136895295D01*
X146642857Y-136895295D02*
X146690476Y-136800057D01*
X146690476Y-136800057D02*
X146738095Y-136752438D01*
X146738095Y-136752438D02*
X146833333Y-136704819D01*
X148357143Y-137704819D02*
X148357143Y-137038152D01*
X148357143Y-137133390D02*
X148404762Y-137085771D01*
X148404762Y-137085771D02*
X148500000Y-137038152D01*
X148500000Y-137038152D02*
X148642857Y-137038152D01*
X148642857Y-137038152D02*
X148738095Y-137085771D01*
X148738095Y-137085771D02*
X148785714Y-137181009D01*
X148785714Y-137181009D02*
X148785714Y-137704819D01*
X148785714Y-137181009D02*
X148833333Y-137085771D01*
X148833333Y-137085771D02*
X148928571Y-137038152D01*
X148928571Y-137038152D02*
X149071428Y-137038152D01*
X149071428Y-137038152D02*
X149166667Y-137085771D01*
X149166667Y-137085771D02*
X149214286Y-137181009D01*
X149214286Y-137181009D02*
X149214286Y-137704819D01*
X149690476Y-137704819D02*
X149690476Y-137038152D01*
X149690476Y-137133390D02*
X149738095Y-137085771D01*
X149738095Y-137085771D02*
X149833333Y-137038152D01*
X149833333Y-137038152D02*
X149976190Y-137038152D01*
X149976190Y-137038152D02*
X150071428Y-137085771D01*
X150071428Y-137085771D02*
X150119047Y-137181009D01*
X150119047Y-137181009D02*
X150119047Y-137704819D01*
X150119047Y-137181009D02*
X150166666Y-137085771D01*
X150166666Y-137085771D02*
X150261904Y-137038152D01*
X150261904Y-137038152D02*
X150404761Y-137038152D01*
X150404761Y-137038152D02*
X150500000Y-137085771D01*
X150500000Y-137085771D02*
X150547619Y-137181009D01*
X150547619Y-137181009D02*
X150547619Y-137704819D01*
D10*
X81250000Y-133000000D02*
X81250000Y-139086420D01*
X211250000Y-133000000D02*
X211250000Y-139086420D01*
X81250000Y-138500000D02*
X211250000Y-138500000D01*
X81250000Y-138500000D02*
X211250000Y-138500000D01*
X81250000Y-138500000D02*
X82376504Y-137913579D01*
X81250000Y-138500000D02*
X82376504Y-139086421D01*
X211250000Y-138500000D02*
X210123496Y-139086421D01*
X211250000Y-138500000D02*
X210123496Y-137913579D01*
M02*
